<?xml version="1.0" standalone="no"?><!DOCTYPE svg PUBLIC "-//W3C//DTD SVG 1.1//EN" "http://www.w3.org/Graphics/SVG/1.1/DTD/svg11.dtd"><svg t="1625053804240" class="icon" viewBox="0 0 1024 1024" version="1.1" xmlns="http://www.w3.org/2000/svg" p-id="14838" xmlns:xlink="http://www.w3.org/1999/xlink" width="200" height="200"><defs><style type="text/css"></style></defs><path d="M187.2 924.9c-5.8 0-11.6-1.7-16.5-5-8.4-5.6-13.5-15-13.5-25V155.3c-0.6-30 23.1-55.1 53.1-56.1h603.4c30 1 53.7 26.2 53.1 56.1V894c0 10.2-5.1 19.6-13.6 25.1s-19.2 6.4-28.5 2.3L527.6 789.6c-0.6-0.3-1.2-0.5-1.7-0.8-4-2.1-8.8-2.1-12.8-0.1-0.5 0.3-1.1 0.5-1.7 0.8l-312.5 133c-3.8 1.6-7.8 2.4-11.7 2.4z m30-765.8v690.4l270-114.9c20.7-10 45-9.8 65.5 0.5l254.2 112.8V159.1H217.2z" fill="#2c2c2c" p-id="14839"></path><path d="M511.9 497.4c-29.3 0-58.1-11.5-79.7-33.2-32.3-32.4-41.8-80.7-24.1-123 17.6-42 58.2-69.1 103.7-69.2h0.7c61.9 0.2 112.3 50.8 112.2 112.7 0 45.8-27.3 86.6-69.7 104.1-14 5.8-28.6 8.6-43.1 8.6z m31.7-36.3zM512 332c-21.3 0-40.4 12.7-48.6 32.4-8.3 19.8-3.8 42.3 11.3 57.5 15.1 15.2 37.6 19.7 57.4 11.5 19.8-8.2 32.6-27.3 32.6-48.7 0-28.8-23.2-52.3-51.9-52.7h-0.8zM651.4 651.4H372.6c-16.6 0-30-13.4-30-30s13.4-30 30-30h278.8c16.6 0 30 13.4 30 30s-13.4 30-30 30z" fill="#2c2c2c" p-id="14840"></path></svg>